<mxfile host="app.diagrams.net" modified="2023-12-13T19:39:36.078Z" agent="Mozilla/5.0 (Windows NT 10.0; Win64; x64) AppleWebKit/537.36 (KHTML, like Gecko) Chrome/117.0.0.0 Safari/537.36" etag="QDkX1l6SmFnja5HUmYKo" version="22.1.8" type="github">
  <diagram name="Página-1" id="9qfoxnP1q4cAaReYH911">
    <mxGraphModel dx="880" dy="1647" grid="1" gridSize="10" guides="1" tooltips="1" connect="1" arrows="1" fold="1" page="1" pageScale="1" pageWidth="827" pageHeight="1169" math="0" shadow="0">
      <root>
        <mxCell id="0" />
        <mxCell id="1" parent="0" />
        <mxCell id="TLzriYwrEJThfe0g41Hj-1" value="class program {&#xa;&#xa;&#xa;program() {&#xa;    while(frontIsBlocked)&#xa;        turnleft();&#xa;    move();&#xa;    turnoff();&#xa;}&#xa;&#xa;&#xa;}" style="text;whiteSpace=wrap;" vertex="1" parent="1">
          <mxGeometry x="667" y="300" width="160" height="200" as="geometry" />
        </mxCell>
        <mxCell id="TLzriYwrEJThfe0g41Hj-2" style="edgeStyle=orthogonalEdgeStyle;rounded=0;orthogonalLoop=1;jettySize=auto;html=1;exitX=0.5;exitY=1;exitDx=0;exitDy=0;exitPerimeter=0;entryX=0.5;entryY=0;entryDx=0;entryDy=0;" edge="1" parent="1" source="TLzriYwrEJThfe0g41Hj-3">
          <mxGeometry relative="1" as="geometry">
            <mxPoint x="360" y="80" as="targetPoint" />
          </mxGeometry>
        </mxCell>
        <mxCell id="TLzriYwrEJThfe0g41Hj-3" value="&lt;font style=&quot;font-size: 20px;&quot;&gt;Inicio&lt;/font&gt;" style="strokeWidth=2;html=1;shape=mxgraph.flowchart.start_1;whiteSpace=wrap;fillColor=#f8cecc;strokeColor=#b85450;" vertex="1" parent="1">
          <mxGeometry x="310" width="100" height="60" as="geometry" />
        </mxCell>
        <mxCell id="TLzriYwrEJThfe0g41Hj-4" value="&lt;font style=&quot;font-size: 20px;&quot;&gt;Fin&lt;/font&gt;" style="strokeWidth=2;html=1;shape=mxgraph.flowchart.terminator;whiteSpace=wrap;fillColor=#f8cecc;strokeColor=#b85450;" vertex="1" parent="1">
          <mxGeometry x="310" y="330" width="100" height="60" as="geometry" />
        </mxCell>
        <mxCell id="TLzriYwrEJThfe0g41Hj-20" style="edgeStyle=orthogonalEdgeStyle;rounded=0;orthogonalLoop=1;jettySize=auto;html=1;exitX=1;exitY=0.5;exitDx=0;exitDy=0;exitPerimeter=0;entryX=0.5;entryY=0;entryDx=0;entryDy=0;" edge="1" parent="1" source="TLzriYwrEJThfe0g41Hj-17" target="TLzriYwrEJThfe0g41Hj-18">
          <mxGeometry relative="1" as="geometry" />
        </mxCell>
        <mxCell id="TLzriYwrEJThfe0g41Hj-22" style="edgeStyle=orthogonalEdgeStyle;rounded=0;orthogonalLoop=1;jettySize=auto;html=1;exitX=0.5;exitY=1;exitDx=0;exitDy=0;exitPerimeter=0;" edge="1" parent="1" source="TLzriYwrEJThfe0g41Hj-17" target="TLzriYwrEJThfe0g41Hj-19">
          <mxGeometry relative="1" as="geometry" />
        </mxCell>
        <mxCell id="TLzriYwrEJThfe0g41Hj-17" value="fIB" style="strokeWidth=2;html=1;shape=mxgraph.flowchart.decision;whiteSpace=wrap;" vertex="1" parent="1">
          <mxGeometry x="310" y="80" width="100" height="90" as="geometry" />
        </mxCell>
        <mxCell id="TLzriYwrEJThfe0g41Hj-18" value="turnleft" style="rounded=1;whiteSpace=wrap;html=1;absoluteArcSize=1;arcSize=14;strokeWidth=2;" vertex="1" parent="1">
          <mxGeometry x="510" y="190" width="90" height="30" as="geometry" />
        </mxCell>
        <mxCell id="TLzriYwrEJThfe0g41Hj-23" style="edgeStyle=orthogonalEdgeStyle;rounded=0;orthogonalLoop=1;jettySize=auto;html=1;exitX=0.5;exitY=1;exitDx=0;exitDy=0;" edge="1" parent="1" source="TLzriYwrEJThfe0g41Hj-19" target="TLzriYwrEJThfe0g41Hj-4">
          <mxGeometry relative="1" as="geometry" />
        </mxCell>
        <mxCell id="TLzriYwrEJThfe0g41Hj-19" value="move" style="rounded=1;whiteSpace=wrap;html=1;absoluteArcSize=1;arcSize=14;strokeWidth=2;" vertex="1" parent="1">
          <mxGeometry x="315" y="280" width="90" height="30" as="geometry" />
        </mxCell>
        <mxCell id="TLzriYwrEJThfe0g41Hj-21" style="edgeStyle=orthogonalEdgeStyle;rounded=0;orthogonalLoop=1;jettySize=auto;html=1;exitX=0.5;exitY=1;exitDx=0;exitDy=0;entryX=0.5;entryY=0;entryDx=0;entryDy=0;entryPerimeter=0;" edge="1" parent="1" source="TLzriYwrEJThfe0g41Hj-18" target="TLzriYwrEJThfe0g41Hj-17">
          <mxGeometry relative="1" as="geometry">
            <Array as="points">
              <mxPoint x="555" y="240" />
              <mxPoint x="660" y="240" />
              <mxPoint x="660" y="80" />
            </Array>
          </mxGeometry>
        </mxCell>
      </root>
    </mxGraphModel>
  </diagram>
</mxfile>
